<?xml version="1.0" encoding="utf-8"?>
<!-- Generator: Moho 12.4 build 22203 -->
<!DOCTYPE svg PUBLIC "-//W3C//DTD SVG 1.1//EN" "http://www.w3.org/Graphics/SVG/1.1/DTD/svg11.dtd">
<svg version="1.1" id="Frame_0" xmlns="http://www.w3.org/2000/svg" xmlns:xlink="http://www.w3.org/1999/xlink" width="1000px" height="720px">
<g id="Layer_1">
<path fill="none" stroke="#e1e4c9" stroke-width="6" stroke-linecap="round" stroke-linejoin="round" d="M 425.337 84.746 C 437.675 84.770 462.349 84.816 462.352 84.816 C 462.354 84.814 472.999 57.622 473.000 57.620 C 473.001 57.625 486.722 113.278 486.724 113.284 C 486.725 113.281 496.660 84.311 496.661 84.308 C 496.666 84.308 529.607 84.253 546.079 84.225 "/>
<path fill="#dcd7d0" fill-rule="evenodd" stroke="#dcd7d0" stroke-width="6" stroke-linecap="round" stroke-linejoin="round" d="M 383.152 391.882 C 422.110 391.760 470.894 391.606 518.022 391.458 C 518.026 341.329 518.035 241.085 518.035 241.070 C 518.020 241.070 369.603 241.069 369.588 241.069 C 369.588 241.084 369.684 341.639 369.732 391.924 C 374.164 391.910 378.775 391.896 383.152 391.882 Z"/>
<path fill="#dcd7d0" fill-rule="evenodd" stroke="#dcd7d0" stroke-width="6" stroke-linecap="round" stroke-linejoin="round" d="M 535.131 241.689 C 535.131 241.704 535.170 341.499 535.190 391.404 C 616.884 391.147 695.296 390.900 695.312 390.900 C 695.312 390.885 695.217 241.704 695.217 241.689 C 695.201 241.689 535.147 241.689 535.131 241.689 Z"/>
<path fill="none" stroke="#2d2d2d" stroke-width="6" stroke-linecap="round" stroke-linejoin="round" d="M 906.362 345.539 C 906.385 349.990 906.408 354.442 906.431 358.894 C 900.022 358.894 893.092 358.894 886.486 358.894 C 886.470 354.442 886.455 349.990 886.439 345.539 C 886.441 345.539 906.360 345.539 906.362 345.539 C 906.364 345.539 926.646 345.539 926.648 345.539 C 926.648 345.540 926.648 358.893 926.648 358.894 C 926.646 358.894 915.368 358.894 906.431 358.894 M 870.877 345.539 C 870.877 349.990 870.877 354.442 870.877 358.894 C 865.348 358.894 854.814 358.894 854.812 358.894 C 854.812 358.893 854.812 345.540 854.812 345.539 C 854.814 345.539 870.875 345.539 870.877 345.539 C 870.878 345.539 886.437 345.539 886.439 345.539 M 886.486 358.894 C 881.103 358.894 875.666 358.894 870.877 358.894 M 764.316 345.539 C 764.339 349.990 764.362 354.442 764.385 358.894 C 757.976 358.894 751.046 358.894 744.439 358.894 C 744.424 354.442 744.408 349.990 744.393 345.539 C 744.395 345.539 764.314 345.539 764.316 345.539 C 764.318 345.539 784.600 345.539 784.602 345.539 C 784.602 345.540 784.602 358.893 784.602 358.894 C 784.600 358.894 773.322 358.894 764.385 358.894 M 728.830 345.539 C 728.831 349.990 728.831 354.442 728.831 358.894 C 723.302 358.894 712.768 358.894 712.766 358.894 C 712.766 358.893 712.766 345.540 712.766 345.539 C 712.768 345.539 728.829 345.539 728.830 345.539 C 728.832 345.539 744.391 345.539 744.393 345.539 M 744.439 358.894 C 739.057 358.894 733.619 358.894 728.831 358.894 M 855.530 325.975 C 855.530 325.969 855.530 261.046 855.530 261.039 C 855.537 261.039 925.590 261.039 925.597 261.039 C 925.597 261.046 925.597 325.969 925.597 325.975 C 925.590 325.975 855.537 325.975 855.530 325.975 M 713.491 327.786 C 713.491 327.779 713.491 262.856 713.491 262.849 C 713.498 262.849 783.551 262.849 783.558 262.849 C 783.558 262.856 783.558 327.779 783.558 327.786 C 783.551 327.786 713.498 327.786 713.491 327.786 "/>
<path fill="#dcd7d0" fill-rule="evenodd" stroke="#dcd7d0" stroke-width="6" stroke-linecap="round" stroke-linejoin="round" d="M 59.270 436.050 C 59.280 436.050 157.403 436.050 157.413 436.050 C 157.413 436.063 157.413 566.150 157.413 566.163 C 157.403 566.163 59.280 566.163 59.270 566.163 C 59.270 566.150 59.270 436.063 59.270 436.050 Z"/>
<path fill="#dcd7d0" fill-rule="evenodd" stroke="#505050" stroke-width="6" stroke-linecap="round" stroke-linejoin="round" d="M 377.756 43.637 C 377.756 39.482 380.876 36.131 384.744 36.131 C 388.611 36.131 391.731 39.482 391.731 43.637 C 391.731 47.791 388.611 51.143 384.744 51.143 C 380.876 51.143 377.756 47.791 377.756 43.637 M 575.322 63.506 C 575.322 57.803 579.604 53.203 584.912 53.203 C 590.221 53.203 594.503 57.803 594.503 63.506 C 594.503 69.208 590.221 73.808 584.912 73.808 C 579.604 73.808 575.322 69.208 575.322 63.506 M 559.977 167.265 C 559.977 162.785 563.341 159.171 567.512 159.171 C 571.683 159.171 575.048 162.785 575.048 167.265 C 575.048 171.746 571.683 175.360 567.512 175.360 C 563.341 175.360 559.977 171.746 559.977 167.265 M 378.852 132.385 C 378.852 127.986 382.156 124.437 386.251 124.437 C 390.346 124.437 393.649 127.986 393.649 132.385 C 393.649 136.784 390.346 140.332 386.251 140.332 C 382.156 140.332 378.852 136.783 378.852 132.385 Z"/>
<path fill="none" stroke="#505050" stroke-width="6" stroke-linecap="round" stroke-linejoin="round" d="M 172.825 392.544 C 172.940 499.065 173.054 605.587 173.169 712.109 C 118.661 712.109 9.659 712.109 9.642 712.109 C 9.642 712.077 9.642 392.840 9.642 392.808 C 51.406 392.759 134.922 392.663 134.935 392.663 C 147.595 392.623 172.822 392.544 172.825 392.544 C 172.845 392.544 304.410 392.130 369.732 391.924 C 374.164 391.910 378.775 391.896 383.152 391.882 C 383.145 436.251 383.132 524.976 383.132 524.990 C 383.151 524.990 574.075 525.730 574.094 525.730 C 574.094 525.749 573.719 649.983 573.531 712.109 C 573.491 712.109 306.624 712.109 173.169 712.109 M 744.448 712.109 C 744.219 650.728 743.760 527.984 743.760 527.965 C 743.765 527.965 791.880 527.227 791.885 527.227 C 791.885 527.213 791.889 436.098 791.891 390.533 C 759.504 390.656 727.408 390.778 695.312 390.900 C 695.296 390.900 616.884 391.147 535.190 391.404 C 528.879 391.424 523.498 391.441 518.022 391.458 C 470.894 391.606 422.110 391.760 383.152 391.882 M 791.891 390.533 C 856.763 390.287 922.025 390.039 987.091 389.792 C 987.091 498.883 987.091 712.077 987.091 712.109 C 987.067 712.109 744.473 712.109 744.448 712.109 C 744.431 712.109 573.548 712.109 573.531 712.109 M 134.935 392.663 C 134.935 392.643 135.598 261.715 135.929 196.240 C 199.383 196.240 277.720 196.240 354.914 196.240 C 354.914 196.222 355.188 11.210 355.188 11.191 C 355.213 11.191 602.007 11.191 602.032 11.191 C 602.032 11.210 601.750 196.222 601.750 196.240 C 732.954 196.240 987.053 196.240 987.091 196.240 C 987.091 196.260 987.091 326.927 987.091 389.792 M 425.337 84.746 C 425.337 84.741 425.337 26.546 425.337 26.541 C 425.349 26.541 546.067 26.541 546.079 26.541 C 546.079 26.546 546.079 65.113 546.079 84.225 C 546.079 103.685 546.079 142.251 546.079 142.257 C 546.067 142.257 425.349 142.257 425.337 142.257 C 425.337 142.251 425.337 84.752 425.337 84.746 M 9.642 392.808 C 9.642 392.788 9.642 196.260 9.642 196.240 C 9.655 196.240 78.602 196.240 135.929 196.240 M 354.914 196.240 C 438.898 196.240 527.797 196.240 601.750 196.240 "/>
</g>
</svg>
